<svg id="Capa_1" enable-background="new 0 0 512 512" height="512" viewBox="0 0 512 512" width="512" xmlns="http://www.w3.org/2000/svg"><g><path d="m436.789 145.985c-4.146-36.758-35.424-65.42-73.271-65.42-6.813 0-13.489.917-19.901 2.709-2.416-46.235-40.792-83.105-87.617-83.105s-85.201 36.87-87.616 83.104c-6.412-1.792-13.089-2.709-19.901-2.709-37.848 0-69.126 28.663-73.271 65.42-42.111 3.832-75.212 39.339-75.212 82.431 0 45.638 37.132 82.767 82.772 82.767h2.709v-45.687c0-40.651 33.072-73.723 73.723-73.723h20.552c8.696-33.991 39.58-59.195 76.244-59.195s67.547 25.205 76.244 59.195h20.552c40.65 0 73.723 33.072 73.723 73.723v45.687h2.709c45.641 0 82.772-37.129 82.772-82.767 0-43.092-33.101-78.599-75.211-82.43z"/><path d="m152.074 511.831h207.852l9.452-199.659h-226.756zm123.341-165.349h30v132.11h-30zm-70.106 0h30v132.11h-30z"/><path d="m397.519 282.173v-16.677c0-24.66-20.063-44.723-44.723-44.723h-47.104v-9.504c0-27.4-22.291-49.691-49.691-49.691s-49.691 22.291-49.691 49.691v9.504h-47.104c-24.66 0-44.723 20.063-44.723 44.723v16.677zm-161.21-70.905c0-10.857 8.834-19.691 19.691-19.691s19.691 8.833 19.691 19.691v9.504h-39.383v-9.504z"/></g></svg>