<?xml version="1.0" encoding="iso-8859-1"?>
<!-- Generator: Adobe Illustrator 19.0.0, SVG Export Plug-In . SVG Version: 6.00 Build 0)  -->
<svg version="1.1" id="Capa_1" xmlns="http://www.w3.org/2000/svg" xmlns:xlink="http://www.w3.org/1999/xlink" x="0px" y="0px"
	 viewBox="0 0 480 480" style="enable-background:new 0 0 480 480;" xml:space="preserve">
<g>
	<g>
		<path d="M472,160h-40v-56c0-4.418-3.582-8-8-8h-24V8c0-4.418-3.582-8-8-8H88c-4.418,0-8,3.582-8,8v88H56c-4.418,0-8,3.582-8,8v56
			H8c-4.418,0-8,3.582-8,8v224c0,4.418,3.582,8,8,8h72v72c0,4.418,3.582,8,8,8h304c4.418,0,8-3.582,8-8v-72h72c4.418,0,8-3.582,8-8
			V168C480,163.582,476.418,160,472,160z M400,112h16v48h-16V112z M96,16h288v144H96V16z M64,112h16v48H64V112z M80,352h-8v-24h8
			V352z M384,464H96V328h288V464z M464,384h-64v-16h16c4.418,0,8-3.582,8-8v-40c0-4.418-3.582-8-8-8H64c-4.418,0-8,3.582-8,8v40
			c0,4.418,3.582,8,8,8h16v16H16V176h448V384z M400,352v-24h8v24H400z"/>
	</g>
</g>
<g>
	<g>
		<rect x="176" y="352" width="176" height="16"/>
	</g>
</g>
<g>
	<g>
		<rect x="128" y="384" width="224" height="16"/>
	</g>
</g>
<g>
	<g>
		<rect x="128" y="416" width="176" height="16"/>
	</g>
</g>
<g>
	<g>
		<rect x="128" y="352" width="32" height="16"/>
	</g>
</g>
<g>
	<g>
		<path d="M104,192H40c-4.418,0-8,3.582-8,8v32c0,4.418,3.582,8,8,8h64c4.418,0,8-3.582,8-8v-32C112,195.582,108.418,192,104,192z
			 M96,224H48v-16h48V224z"/>
	</g>
</g>
<g>
	<g>
		<rect x="128" y="224" width="80" height="16"/>
	</g>
</g>
<g>
	<g>
		<rect x="224" y="224" width="16" height="16"/>
	</g>
</g>
<g>
</g>
<g>
</g>
<g>
</g>
<g>
</g>
<g>
</g>
<g>
</g>
<g>
</g>
<g>
</g>
<g>
</g>
<g>
</g>
<g>
</g>
<g>
</g>
<g>
</g>
<g>
</g>
<g>
</g>
</svg>
